# xmcd
#
# Track frame offsets: 
#        150
#        10728
#        22881
#        34494
#        45715
#        55715
#        67328
#        81051
#        94346
#        107645
#
# Disc length: 1600 seconds
#
# Revision: 2
# Processed by: cddbd v1.5.2PL0 Copyright (c) Steve Scherf et al.
# Submitted via: ExactAudioCopyFreeDBPlugin 1.0
#
DISCID=7d063e0a
DTITLE=Various Artist - Classics of Country
DYEAR=1900
DGENRE=Country
TTITLE0=Willie Nelson - Blue Eyes Crying in the Rain
TTITLE1=Hank Williams - Lovesick Blues
TTITLE2=George Jones - She Thinks I Still Care
TTITLE3=Conway Twitty - Hello Darlin'
TTITLE4=Jim Reeves - He'll Have to Go (Live)
TTITLE5=Eddy Arnold - I Don't Want to Know
TTITLE6=Patti Page - Tennessee Waltz
TTITLE7=Hank Snow - I Don't Hurt Anymore
TTITLE8=Lynn Anderson - Rose Garden
TTITLE9=Merle Haggard - If We Make It Through December
EXTD=
EXTT0=
EXTT1=
EXTT2=
EXTT3=
EXTT4=
EXTT5=
EXTT6=
EXTT7=
EXTT8=
EXTT9=
PLAYORDER=
